<?xml version="1.0" standalone="no"?>
<!DOCTYPE svg PUBLIC "-//W3C//DTD SVG 20010904//EN"
 "http://www.w3.org/TR/2001/REC-SVG-20010904/DTD/svg10.dtd">
<svg version="1.0" xmlns="http://www.w3.org/2000/svg"
 width="768.000000pt" height="768.000000pt" viewBox="0 0 768.000000 768.000000"
 preserveAspectRatio="xMidYMid meet">
<metadata>
Created by potrace 1.14, written by Peter Selinger 2001-2017
</metadata>
<g transform="translate(0.000000,768.000000) scale(0.100000,-0.100000)"
fill="#000000" stroke="none">
<path d="M970 7469 c-190 -17 -382 -109 -520 -249 -141 -144 -222 -322 -241
-533 -6 -72 -9 -908 -7 -2337 l3 -2225 28 -90 c94 -299 317 -515 617 -597 l85
-23 1380 0 c1303 0 1384 1 1458 18 322 76 558 304 648 624 l22 78 -2 2305 -3
2305 -23 91 c-60 237 -222 439 -440 547 -104 52 -197 77 -320 87 -131 11
-2562 11 -2685 -1z m1361 -835 c175 -30 346 -98 500 -199 106 -69 301 -269
368 -378 341 -553 228 -1260 -266 -1665 -179 -147 -354 -229 -578 -274 -124
-24 -332 -26 -456 -4 -260 47 -495 170 -684 360 -231 233 -355 512 -372 837
-30 580 339 1109 896 1283 177 56 408 71 592 40z"/>
<path d="M4850 6246 l0 -416 29 0 c16 0 71 -11 124 -24 428 -109 745 -456 808
-885 15 -109 6 -301 -20 -407 -42 -169 -132 -337 -251 -467 -170 -185 -388
-299 -652 -342 l-38 -6 0 -852 c0 -533 -4 -876 -10 -917 -33 -206 -145 -413
-320 -590 -108 -109 -190 -170 -307 -229 -135 -68 -226 -91 -393 -100 l-115
-6 530 -227 c292 -125 557 -234 590 -243 350 -92 737 84 906 410 20 39 140
304 267 590 126 286 492 1110 813 1830 320 721 594 1344 608 1385 23 67 25 91
25 230 1 150 -1 158 -32 250 -60 174 -168 318 -309 412 -44 30 -449 216 -1148
528 -594 265 -1086 484 -1092 487 -10 4 -13 -82 -13 -411z"/>
</g>
</svg>
